<svg width="26" height="30" viewBox="0 0 26 30" fill="none" xmlns="http://www.w3.org/2000/svg">
<path d="M25.9956 14.931C25.9956 17.346 25.9934 19.7633 26 22.1783C26 22.36 25.9518 22.4629 25.7895 22.5571C21.5928 24.9699 17.4006 27.3893 13.2083 29.8109C13.0482 29.9028 12.9364 29.8984 12.7764 29.8065C8.59723 27.3937 4.41592 24.983 0.23461 22.5724C0.203913 22.5549 0.173216 22.5308 0.140327 22.5176C0.0263114 22.476 -0.0131557 22.3928 0.00438523 22.2768C0.00877045 22.2483 0.00438523 22.2177 0.00438523 22.1892C0.00438523 17.357 0.00657784 12.527 0 7.69474C0 7.50863 0.0592005 7.41011 0.217069 7.32034C4.41373 4.90532 8.606 2.48811 12.7983 0.0643405C12.943 -0.0188604 13.0439 -0.0232394 13.1908 0.062151C17.394 2.49249 21.5994 4.91846 25.8092 7.33785C25.9605 7.42543 26 7.51958 26 7.68379C25.9956 10.101 25.9956 12.516 25.9956 14.931Z" fill="#EA4959"/>
<path d="M6.74667 19.1722C6.86069 19.2116 6.95058 19.1985 7.03609 19.1985C7.5996 19.2007 8.1609 19.1963 8.72441 19.2029C8.85815 19.205 8.93709 19.1613 9.00067 19.043C9.20678 18.673 9.42385 18.3095 9.63653 17.9439C9.67819 17.8716 9.71327 17.8103 9.81413 17.8125C10.3842 17.8169 10.9521 17.8147 11.5134 17.8147C11.566 17.8935 11.5112 17.9395 11.4849 17.9855C10.9938 18.8722 10.4982 19.7568 10.0093 20.6457C9.94788 20.7574 9.87553 20.7946 9.75055 20.7946C7.90875 20.7902 6.06915 20.7924 4.22736 20.7924C4.1857 20.7924 4.14185 20.7881 4.10676 20.7837C4.09799 20.7684 4.09361 20.7618 4.09142 20.7552C4.08922 20.7486 4.08703 20.7399 4.08922 20.7355C6.32569 16.5777 8.56215 12.422 10.7986 8.26632C10.8162 8.23566 10.8293 8.20063 10.8688 8.1853C10.9477 8.22471 10.9653 8.30792 11.0003 8.37579C11.7349 9.74423 12.4694 11.1149 13.2017 12.4855C14.3682 14.6662 15.5369 16.847 16.6989 19.0299C16.7801 19.181 16.87 19.2313 17.0366 19.2291C17.7229 19.2182 18.4092 19.2248 19.0911 19.2248C19.0998 19.2094 19.1042 19.2029 19.1064 19.1985C19.1086 19.1919 19.113 19.1853 19.113 19.1788C19.1108 19.1656 19.1064 19.1503 19.0998 19.1372C19.0867 19.1109 19.0735 19.0846 19.0604 19.0584C17.1638 15.3909 15.2694 11.7213 13.3727 8.05393C13.3662 8.0408 13.3596 8.02766 13.3574 8.01233C13.3552 8.00577 13.3618 7.9992 13.364 7.98606C13.4122 7.94665 13.4714 7.96635 13.5262 7.96635C14.0152 7.96416 14.5063 7.97292 14.9953 7.96198C15.1597 7.9576 15.2365 8.01671 15.311 8.15903C16.3372 10.158 17.3699 12.1527 18.4026 14.1495C19.5055 16.2821 20.6062 18.4146 21.7091 20.5472C21.7441 20.6173 21.7924 20.683 21.8011 20.764C21.7354 20.8143 21.6674 20.7946 21.606 20.7946C19.8234 20.7968 18.0408 20.7946 16.2582 20.799C16.1069 20.799 16.0258 20.753 15.9556 20.6173C15.2474 19.2839 14.5261 17.957 13.8178 16.6214C13.7389 16.4704 13.6512 16.4222 13.4824 16.4222C11.7941 16.4288 10.1058 16.4288 8.41963 16.4222C8.24861 16.4222 8.1609 16.4769 8.08416 16.6258C7.67853 17.4097 7.26193 18.1891 6.84972 18.9686C6.81245 19.0277 6.78394 19.0934 6.74667 19.1722ZM8.99848 14.9618C10.3119 14.9618 11.577 14.9618 12.8838 14.9618C12.2326 13.7576 11.5945 12.5796 10.9411 11.371C10.2855 12.5818 9.65188 13.7532 8.99848 14.9618Z" fill="#FFFDFD"/>
</svg>
