<svg width="70" height="112" viewBox="0 0 70 112" fill="none" xmlns="http://www.w3.org/2000/svg">
<path d="M1.36312 100.355V67.3096L42.6926 77.1009V111.37L1.36312 100.355Z" fill="white"/>
<path d="M2.17884 100.361V67.3157L1.1456 67.9052L42.4751 77.6965L41.8769 77.107V111.376L42.9102 110.785L1.58065 99.7636C0.5882 99.5005 0.161309 100.682 1.1456 100.945L42.4751 111.96C42.5955 111.985 42.722 111.989 42.8448 111.971C42.9676 111.954 43.0834 111.915 43.1832 111.859C43.283 111.803 43.3643 111.73 43.4207 111.646C43.477 111.562 43.507 111.47 43.5083 111.376V77.107C43.5049 76.9736 43.4452 76.8444 43.3377 76.7381C43.2302 76.6318 43.0805 76.5538 42.9102 76.5154L1.58065 66.7242C1.45933 66.699 1.33189 66.6952 1.2083 66.7131C1.0847 66.731 0.96832 66.7702 0.868253 66.8275C0.768185 66.8848 0.687149 66.9586 0.631488 67.0433C0.575827 67.1281 0.547052 67.2213 0.547414 67.3157V100.361C0.547414 101.143 2.17884 101.143 2.17884 100.361Z" fill="#1A1A1A"/>
<path d="M42.6926 77.1009L65.8045 64.4538V98.9273L42.6926 111.37V77.1009Z" fill="white"/>
<path d="M43.1032 77.6292L66.2151 64.9821L64.9888 64.4599V98.9334L65.3939 98.4051L42.282 110.848L43.5083 111.376V77.107C43.5083 76.3196 41.8769 76.3176 41.8769 77.107V111.376C41.8769 111.807 42.5866 112.182 43.1032 111.905L65.6223 99.7717C66.071 99.531 66.5115 99.3638 66.6202 98.9232C66.8078 98.1582 66.6202 97.2362 66.6202 96.4631V64.4599C66.6202 64.0315 65.9078 63.644 65.3939 63.9316L42.282 76.5725C41.4419 77.0315 42.2549 78.0943 43.1032 77.6292Z" fill="#1A1A1A"/>
<path d="M1.36312 67.3096L24.7469 53.8466L65.8045 64.4538L42.6926 77.1009L1.36312 67.3096Z" fill="white"/>
<path d="M1.7737 67.8379L20.788 56.886L23.6131 55.2541C23.904 55.0868 24.9264 54.689 25.0569 54.4218C25.1629 54.2036 24.6028 54.5116 24.5647 54.4402C24.5865 54.481 24.9019 54.5238 24.9536 54.5422C25.5273 54.7339 26.1663 54.8543 26.7617 55.0073L65.5843 65.0413L65.3912 63.9234L46.309 74.3634L43.5083 75.9035C43.4023 75.9626 42.3011 76.4604 42.3147 76.5583C42.2956 76.4196 43.057 76.6684 42.815 76.4848C42.6491 76.4243 42.4723 76.3823 42.2902 76.3604L1.58065 66.718C0.577321 66.4814 0.147711 67.6625 1.1456 67.8991L38.8071 76.8234C39.9491 77.0947 41.2189 77.5537 42.4126 77.6781C43.4349 77.7842 44.6558 76.7745 45.4035 76.3584L66.1933 64.9821C66.3272 64.9188 66.4342 64.8281 66.5016 64.7207C66.569 64.6133 66.5941 64.4937 66.5738 64.3759C66.5535 64.2582 66.4887 64.1472 66.3871 64.0562C66.2855 63.9652 66.1512 63.8979 66.0003 63.8622L28.2953 54.1179C27.262 53.8527 26.0602 53.3693 24.9726 53.2591C23.885 53.149 22.4629 54.3973 21.7097 54.8318L14.2541 59.1155L0.952549 66.7813C0.128678 67.2525 0.941673 68.3173 1.7737 67.8379Z" fill="#1A1A1A"/>
<path d="M10.8798 45.6872H53.8407V75.877L10.8798 75.061V45.6872Z" fill="white"/>
<path d="M10.8798 46.3053H53.8407L53.025 45.6933V75.8831L53.8407 75.2711L10.8798 74.4552L11.6955 75.0671V45.6933C11.6955 44.9059 10.0641 44.9039 10.0641 45.6933V75.0671C10.0683 75.2285 10.1555 75.3823 10.3076 75.4964C10.4597 75.6105 10.6648 75.676 10.8798 75.6791L53.8407 76.495C54.0571 76.495 54.2645 76.4306 54.4175 76.3158C54.5705 76.201 54.6564 76.0454 54.6564 75.8831V45.6933C54.6564 45.531 54.5705 45.3753 54.4175 45.2606C54.2645 45.1458 54.0571 45.0813 53.8407 45.0813H10.8798C9.83024 45.0813 9.82752 46.3053 10.8798 46.3053Z" fill="#1A1A1A"/>
<path d="M10.8798 45.6872L26.1064 31.8162H69.0674L53.8407 45.6872H10.8798Z" fill="white"/>
<path d="M11.4562 46.1196L25.2717 33.5338C25.6333 33.2053 26.3593 32.7607 26.5605 32.3588C26.7509 31.9978 26.2886 32.626 26.1282 32.4282C26.1282 32.4465 26.4001 32.4282 26.4246 32.4282C27.7841 32.5771 29.3149 32.4282 30.6799 32.4282H69.0674L68.4909 31.3817L54.6238 44.0145C54.3002 44.3103 53.5362 44.7856 53.3703 45.1568C53.2045 45.5648 53.4002 44.3756 53.8217 45.0752C53.714 45.0681 53.6058 45.0681 53.4981 45.0752C52.1168 44.9467 50.6051 45.0752 49.2156 45.0752H10.8798C9.83024 45.0752 9.82752 46.2991 10.8798 46.2991H53.0631C53.9631 46.2991 54.3356 46.1951 54.9202 45.6607L69.6438 32.2487C70.0761 31.855 69.8233 31.2043 69.0674 31.2043H26.8895C25.9569 31.2043 25.5953 31.3226 24.9862 31.8713L10.3034 45.2527C9.6399 45.8565 10.7873 46.7275 11.4562 46.1196Z" fill="#1A1A1A"/>
<path d="M53.8407 75.877V45.6872L69.0674 31.8162V63.4339L53.8407 75.877Z" fill="white"/>
<path d="M54.6564 75.8831V55.3826C54.6564 52.3004 54.8903 49.159 54.6564 46.0809C54.6048 45.4057 54.7978 46.0278 54.4498 46.0809C54.7217 46.0299 55.2655 45.3384 55.4368 45.1813L69.6438 32.2385L68.2517 31.8223V62.5017C68.2517 62.6669 68.1211 63.2279 68.2517 63.3666C68.4148 63.5379 68.3224 63.03 68.4637 63.0279C68.3849 63.0279 68.1483 63.285 68.0967 63.3278L63.7462 66.8914L53.2724 75.4486C52.5628 76.0299 53.7129 76.8969 54.4253 76.3155L68.703 64.6476C69.2958 64.1621 69.8695 63.8316 69.8912 63.1544C70.136 55.5335 69.8912 47.8841 69.8912 40.2612V31.8223C69.8912 31.3287 68.964 30.9656 68.4991 31.3878L55.0126 43.6739C54.4117 44.2226 53.1854 44.9875 53.0332 45.7137C52.8727 46.4848 53.0332 47.3741 53.0332 48.1513V75.8831C53.025 76.6643 54.6564 76.6643 54.6564 75.8831Z" fill="#1A1A1A"/>
<path d="M14.6865 48.3614H50.0341V73.2007L14.6865 72.5296V48.3614Z" fill="white"/>
<path d="M14.6865 48.6674H50.0341L49.6262 48.3614V73.2007L50.0341 72.8947L14.6865 72.2236L15.0943 72.5296V48.3614C15.0943 48.2803 15.0513 48.2024 14.9749 48.1451C14.8984 48.0877 14.7946 48.0554 14.6865 48.0554C14.5783 48.0554 14.4745 48.0877 14.3981 48.1451C14.3216 48.2024 14.2786 48.2803 14.2786 48.3614V72.5296C14.28 72.6104 14.3234 72.6876 14.3996 72.7448C14.4758 72.8019 14.5787 72.8345 14.6865 72.8355L50.0341 73.5168C50.1418 73.5158 50.2447 73.4832 50.3209 73.4261C50.3971 73.3689 50.4405 73.2917 50.4419 73.2109V48.3614C50.4405 48.2806 50.3971 48.2034 50.3209 48.1462C50.2447 48.0891 50.1418 48.0565 50.0341 48.0554H14.6865C14.5783 48.0554 14.4745 48.0877 14.3981 48.1451C14.3216 48.2024 14.2786 48.2803 14.2786 48.3614C14.2786 48.4426 14.3216 48.5204 14.3981 48.5778C14.4745 48.6352 14.5783 48.6674 14.6865 48.6674Z" fill="#1A1A1A"/>
<path d="M29.3693 17.1293V47.3191L66.3483 37.9358V7.74598L29.3693 17.1293Z" fill="white"/>
<path d="M28.5536 17.1354V47.3252C28.5536 47.4194 28.5827 47.5124 28.6386 47.5969C28.6944 47.6813 28.7755 47.7549 28.8755 47.812C28.9755 47.8691 29.0918 47.908 29.2151 47.9258C29.3385 47.9436 29.4657 47.9398 29.5868 47.9147L66.5767 38.5253C66.7433 38.4859 66.8894 38.4085 66.9946 38.304C67.0999 38.1994 67.1591 38.0729 67.164 37.9419V7.7521C67.1644 7.65767 67.1356 7.56445 67.08 7.47975C67.0243 7.39505 66.9433 7.32116 66.8432 7.26387C66.7431 7.20657 66.6267 7.16743 66.5032 7.14951C66.3796 7.13158 66.2521 7.13536 66.1308 7.16054L33.7198 15.3771L29.1518 16.5377C28.162 16.7886 28.5889 17.9656 29.5868 17.7188L66.5767 8.3355L65.5326 7.7521V37.9419L66.1308 37.3503L29.1409 46.7275L30.185 47.3252V17.1354C30.185 16.3419 28.5536 16.3399 28.5536 17.1354Z" fill="#1A1A1A"/>
<path d="M29.3693 17.1293L0.819315 9.78582L34.2636 0.606502L66.3483 7.74598L29.3693 17.1293Z" fill="white"/>
<path d="M29.5868 16.5377L4.62598 10.1163L1.03684 9.19427V10.3753L29.4917 2.56476C31.0007 2.15679 32.7545 1.84673 34.1793 1.27762C34.7041 1.07363 33.9482 1.10627 34.2446 1.23886C34.6878 1.44284 35.4056 1.49792 35.8977 1.60807L66.1308 8.33549V7.15442L33.7198 15.3771L29.1518 16.5377C28.162 16.7886 28.5889 17.9656 29.5868 17.7188L66.5767 8.3355C66.7495 8.30027 66.9021 8.22335 67.0108 8.11663C67.1196 8.00991 67.1785 7.8793 67.1785 7.74496C67.1785 7.61062 67.1196 7.48001 67.0108 7.37329C66.9021 7.26656 66.7495 7.18965 66.5767 7.15442L37.4911 0.686059C36.5285 0.471874 35.0793 -0.0992835 34.0461 0.0149481C33.0128 0.12918 31.8001 0.626903 30.7832 0.908402L0.601793 9.19427C0.42899 9.2295 0.276442 9.30641 0.167683 9.41314C0.0589248 9.51986 0 9.65047 0 9.78481C0 9.91915 0.0589248 10.0498 0.167683 10.1565C0.276442 10.2632 0.42899 10.3401 0.601793 10.3753L29.1463 17.7188C30.1469 17.9738 30.5738 16.7927 29.5868 16.5377Z" fill="#1A1A1A"/>
<path d="M29.3693 17.1293V47.3191L0.819315 39.1597V9.78582L29.3693 17.1293Z" fill="white"/>
<path d="M28.5536 17.1354V47.3252L29.5868 46.7336L1.03684 38.5681L1.63503 39.1658V9.79195L0.601793 10.3753L29.1463 17.7188C30.1415 17.9738 30.5684 16.7927 29.5814 16.5377L4.62598 10.1163L1.03684 9.19427C0.914851 9.16894 0.786679 9.16526 0.662463 9.18351C0.538248 9.20176 0.421399 9.24145 0.32116 9.29943C0.220922 9.35741 0.140045 9.4321 0.084929 9.51758C0.0298129 9.60306 0.00196985 9.697 0.00360279 9.79195V39.1658C0.00799354 39.2988 0.0681668 39.4273 0.175563 39.5331C0.282959 39.639 0.432108 39.7167 0.601793 39.7553L29.1518 47.9188C29.6575 48.0636 30.185 47.6944 30.185 47.3293L30.185 17.1354C30.185 16.3419 28.5536 16.3399 28.5536 17.1354Z" fill="#1A1A1A"/>
<path d="M33.5267 27.4101C33.5267 29.0236 35.6258 30.5291 38.9376 31.3776C38.2742 33.8744 38.818 35.8857 40.6316 36.6812C42.4941 37.487 45.2676 36.9281 47.9023 35.2024C50.4691 36.8587 53.0685 37.5115 54.874 36.7261C56.7338 35.9102 57.3021 33.7683 56.6223 31.194C60.07 30.3394 61.9979 29.0542 61.9979 27.4203C61.9979 25.8456 59.8933 24.4809 56.6277 23.6384C57.3592 20.9581 56.7419 18.9937 54.8522 18.1778C53.0332 17.3904 50.4093 18.0778 47.8044 19.777C45.0854 17.9717 42.4941 17.421 40.6098 18.241C38.7908 19.0284 38.2742 21.0784 38.9376 23.6201C35.7373 24.4462 33.5267 25.8415 33.5267 27.4101Z" fill="white"/>
<path d="M55.9371 24.4666C55.6652 24.3973 55.3933 24.332 55.1214 24.2626C55.1649 24.1239 55.2084 23.9852 55.2465 23.8547C55.8637 21.6108 55.4585 19.8035 54.0827 19.2079C52.764 18.6367 50.6078 19.2324 48.4298 20.6541C48.215 20.7949 48.0056 20.9397 47.799 21.0886C47.663 20.9907 47.5271 20.8846 47.3803 20.799C45.0963 19.2772 42.8095 18.6367 41.4337 19.2324C40.1177 19.8056 39.7261 21.5048 40.2808 23.6303C40.3352 23.8343 40.3978 24.0505 40.4684 24.2586C40.1449 24.3279 39.8322 24.4013 39.5331 24.4809C36.8548 25.1806 35.1446 26.278 35.1446 27.4162C35.1446 28.5912 36.9799 29.7702 39.7669 30.4862C39.9926 30.5433 40.221 30.5964 40.4494 30.6453C40.376 30.8697 40.308 31.0961 40.2509 31.3226C39.7234 33.4134 40.1367 35.0718 41.45 35.6409C42.8095 36.2284 45.0854 35.6246 47.3041 34.1702C47.4809 34.0539 47.6549 33.9315 47.8316 33.8051C48.0546 33.9662 48.283 34.1212 48.5141 34.2722C50.6649 35.6593 52.7857 36.2202 54.099 35.6491C55.4585 35.0596 55.8963 33.2788 55.3253 31.1104C55.2818 30.9431 55.2301 30.7759 55.173 30.6025C55.3335 30.5678 55.4885 30.5311 55.6434 30.4923C58.5419 29.7723 60.4262 28.6075 60.4262 27.4162C60.4262 26.2739 58.6616 25.1724 55.9317 24.4646L55.9371 24.4666Z" fill="#333333"/>
<path d="M55.309 29.7254L54.8848 29.8253C54.5307 29.0036 54.1029 28.2007 53.6042 27.4224C54.0835 26.6543 54.4941 25.8631 54.8332 25.0541C55.0915 25.1112 55.3443 25.1704 55.5863 25.2316C57.9247 25.8435 59.3522 26.7288 59.3522 27.4183C59.3522 28.1506 57.8105 29.1032 55.309 29.7254ZM54.2703 31.2695C54.5145 32.0912 54.556 32.9395 54.3927 33.7724C54.2404 34.3844 53.9386 34.7923 53.5634 34.9494C52.7667 35.2962 51.0618 34.8474 49.2265 33.6602C49.0144 33.5242 48.8023 33.3794 48.5902 33.2257C49.3563 32.5892 50.0639 31.9146 50.7084 31.2063C51.8611 31.1332 53.0058 31.001 54.1344 30.8106C54.186 30.9656 54.2295 31.1186 54.2703 31.2695ZM43.7802 34.8821C42.9999 35.0861 42.3799 35.0861 42.0047 34.9331C41.208 34.5884 40.8763 33.2543 41.3277 31.4653C41.382 31.2614 41.4446 31.0451 41.5126 30.8371C42.6329 31.0192 43.7685 31.1439 44.9114 31.2104C45.576 31.9163 46.3027 32.5883 47.0866 33.2217C46.9289 33.3359 46.7685 33.4481 46.6053 33.5542C45.7804 34.1233 44.8227 34.5734 43.7802 34.8821ZM40.1204 29.7213C39.0504 29.4681 38.0514 29.0699 37.173 28.5463C36.5449 28.1384 36.2295 27.7426 36.2295 27.4183C36.2295 26.7268 37.589 25.8456 39.8893 25.2479C40.1775 25.1724 40.4684 25.1051 40.7594 25.0439C41.1 25.8624 41.5124 26.6631 41.9938 27.4407C41.5059 28.2287 41.0889 29.0403 40.7458 29.8702C40.5364 29.8233 40.3271 29.7825 40.1204 29.7213ZM41.344 23.4773C40.8681 21.6557 41.1836 20.2809 41.9775 19.9361C42.8231 19.5689 44.6966 20.0932 46.6652 21.4069C46.7929 21.4905 46.918 21.5782 47.0458 21.668C46.2705 22.299 45.5512 22.9675 44.8923 23.669C43.7569 23.7468 42.6297 23.881 41.518 24.0709C41.4527 23.8771 41.3956 23.6813 41.344 23.4855V23.4773ZM52.2501 25.4988C52.0035 25.1792 51.7471 24.863 51.4806 24.5503C52.2554 24.6219 53.025 24.7226 53.7863 24.8522C53.5688 25.3764 53.2969 25.9231 52.9706 26.484C52.7368 26.1495 52.4921 25.8211 52.2419 25.4967L52.2501 25.4988ZM47.8017 22.2473C48.302 22.6552 48.7996 23.106 49.2918 23.5956C48.2939 23.5609 47.2987 23.5609 46.3008 23.5956C46.7929 23.1101 47.296 22.6573 47.8017 22.2473ZM43.3262 25.511C43.0787 25.8354 42.8395 26.1617 42.6138 26.4922C42.2984 25.9333 42.0292 25.3825 41.7981 24.8603C42.5186 24.7379 43.2881 24.64 44.0902 24.5645C43.8292 24.8678 43.5745 25.1792 43.3262 25.4988V25.511ZM44.1256 30.3536C43.3428 30.2902 42.5651 30.1962 41.7953 30.0721C42.0183 29.5316 42.2929 28.9706 42.6111 28.3995C42.8395 28.7299 43.0787 29.057 43.3289 29.3806C43.5845 29.7009 43.8509 30.0252 44.1256 30.3455V30.3536ZM47.8316 32.6383C47.3204 32.2303 46.8093 31.7672 46.3117 31.2736C46.7957 31.2879 47.2878 31.294 47.7908 31.294C48.2939 31.294 48.8159 31.294 49.3162 31.2695C48.8532 31.7447 48.3576 32.2015 47.8316 32.6383ZM52.9978 28.3546C53.3191 28.8996 53.6031 29.4565 53.8489 30.0232C53.0698 30.1548 52.282 30.2556 51.4887 30.3251C51.7606 30.0069 52.0162 29.6866 52.2664 29.3602C52.5165 29.0338 52.764 28.6932 52.9978 28.3546ZM51.3202 28.9665C50.9377 29.4643 50.5325 29.9531 50.1047 30.4332C49.357 30.474 48.5794 30.4944 47.7908 30.4944C47.0023 30.4944 46.2383 30.476 45.5014 30.4413C45.0636 29.962 44.6531 29.4724 44.2642 28.9706C43.8754 28.4688 43.5192 27.9609 43.1766 27.4407C43.5083 26.9226 43.8709 26.4133 44.2642 25.9129C44.6476 25.4131 45.0582 24.9256 45.4905 24.4483C46.2437 24.4054 47.0132 24.383 47.7936 24.383C48.5739 24.383 49.3489 24.4054 50.0993 24.4483C50.5289 24.9229 50.935 25.4097 51.3174 25.9088C51.6999 26.4079 52.0625 26.9151 52.4051 27.4305C52.0679 27.9514 51.7054 28.4634 51.3174 28.9665H51.3202ZM53.5471 19.9157C54.3927 20.2829 54.7244 21.7516 54.1915 23.6976C54.1561 23.8241 54.1181 23.9485 54.0773 24.075C52.9639 23.8831 51.8349 23.7468 50.6975 23.667C50.0445 22.9655 49.3305 22.297 48.5603 21.6659C48.7479 21.5292 48.9437 21.3967 49.1422 21.2579C51.0075 20.034 52.7531 19.5587 53.5471 19.9014V19.9157Z" fill="white"/>
<path d="M47.7908 25.7252C48.2372 25.7252 48.6735 25.8245 49.0447 26.0105C49.4158 26.1966 49.705 26.461 49.8759 26.7704C50.0467 27.0797 50.0914 27.4202 50.0043 27.7486C49.9172 28.077 49.7023 28.3787 49.3866 28.6155C49.071 28.8523 48.6689 29.0135 48.2311 29.0788C47.7933 29.1442 47.3396 29.1106 46.9272 28.9825C46.5148 28.8543 46.1624 28.6373 45.9144 28.3589C45.6664 28.0805 45.534 27.7531 45.534 27.4183C45.5337 27.1959 45.5918 26.9756 45.7051 26.7701C45.8184 26.5645 45.9846 26.3778 46.1942 26.2205C46.4039 26.0632 46.6528 25.9385 46.9268 25.8535C47.2007 25.7686 47.4944 25.7249 47.7908 25.7252Z" fill="#333333"/>
<path d="M39.9736 63.544V67.895C39.991 68.2856 39.9426 68.6763 39.8295 69.0577C39.7452 69.3293 39.5755 69.5818 39.3346 69.7941C39.1145 69.9894 38.838 70.1445 38.5262 70.2477C38.2143 70.3509 37.8752 70.3995 37.5346 70.3898C36.9758 70.3908 36.4274 70.2765 35.9494 70.0593L36.6128 69.1924C36.8805 69.3419 37.2013 69.4286 37.5346 69.4412C37.7041 69.4529 37.8744 69.4264 38.0236 69.3649C38.1728 69.3035 38.2942 69.21 38.3721 69.0965C38.5352 68.868 38.6141 68.4662 38.6141 67.895V63.544H39.9736Z" fill="black"/>
<path d="M47.1899 64.5456L46.1023 65.0331C45.9658 64.826 45.7642 64.6468 45.515 64.5109C45.2891 64.4109 45.0294 64.362 44.7673 64.3702C44.4266 64.3612 44.0935 64.447 43.8319 64.6109C43.7139 64.6817 43.619 64.7718 43.5544 64.8743C43.4898 64.9768 43.4574 65.0891 43.4594 65.2024C43.4594 65.5315 43.7848 65.796 44.4355 65.9959L45.3301 66.2693C45.9459 66.4351 46.4952 66.7159 46.9262 67.0852C47.2712 67.4187 47.45 67.8321 47.4319 68.254C47.4456 68.5379 47.3802 68.8208 47.2397 69.0846C47.0992 69.3484 46.8869 69.5873 46.6162 69.786C46.3456 69.9871 46.0234 70.1451 45.6692 70.2502C45.315 70.3554 44.936 70.4057 44.5552 70.3979C43.8484 70.418 43.1586 70.2324 42.6301 69.8798C42.1004 69.4907 41.7694 68.9746 41.6947 68.4213L43.0543 68.1949C43.0695 68.4829 43.1807 68.7634 43.3778 69.0108C43.5112 69.1363 43.6779 69.2397 43.8674 69.3143C44.0568 69.3889 44.2649 69.4332 44.4784 69.4443C44.6918 69.4555 44.906 69.4332 45.1074 69.3789C45.3088 69.3247 45.493 69.2396 45.6482 69.1291C45.7871 69.0231 45.8959 68.897 45.9678 68.7585C46.0398 68.62 46.0735 68.472 46.067 68.3234C46.0688 68.2015 46.044 68.0802 45.9935 67.9644C45.9455 67.8542 45.8688 67.7523 45.7679 67.6645C45.6525 67.5651 45.5188 67.4786 45.3709 67.4075C45.1864 67.3179 44.9917 67.2408 44.789 67.177L43.9162 66.9077C42.6908 66.5174 42.0772 65.9483 42.0754 65.2004C42.0702 64.9594 42.1368 64.7206 42.2704 64.5015C42.4041 64.2823 42.6012 64.0883 42.8476 63.9336C43.3789 63.5863 44.0656 63.4026 44.77 63.4196C45.8032 63.4155 46.6099 63.7908 47.1899 64.5456Z" fill="black"/>
</svg>
