<svg width="200" height="200" viewBox="0 0 200 200" fill="none" xmlns="http://www.w3.org/2000/svg">
<path d="M200 0H0V200H200V0Z" fill="#F7DF1E"/>
<path d="M134.349 156.251C138.378 162.829 143.619 167.664 152.889 167.664C160.676 167.664 165.651 163.771 165.651 158.394C165.651 151.949 160.54 149.667 151.968 145.918L147.27 143.902C133.708 138.124 124.698 130.886 124.698 115.584C124.698 101.489 135.438 90.7588 152.222 90.7588C164.171 90.7588 172.762 94.9175 178.952 105.806L164.317 115.203C161.095 109.425 157.619 107.149 152.222 107.149C146.717 107.149 143.228 110.641 143.228 115.203C143.228 120.841 146.72 123.124 154.784 126.616L159.482 128.629C175.451 135.476 184.467 142.457 184.467 158.152C184.467 175.073 171.174 184.343 153.324 184.343C135.87 184.343 124.593 176.025 119.076 165.124L134.349 156.251ZM67.9586 157.879C70.911 163.118 73.5967 167.546 80.0538 167.546C86.2284 167.546 90.1236 165.13 90.1236 155.737V91.8318H108.917V155.991C108.917 175.451 97.5078 184.308 80.8538 184.308C65.8062 184.308 57.0919 176.521 52.6602 167.141L67.9586 157.879Z" fill="black"/>
</svg>
