<svg width="50" height="50" viewBox="0 0 50 50" className="w-full h-full" fill="none" xmlns="http://www.w3.org/2000/svg">
<path d="M49.0571 22.7726L27.2266 0.942937C25.9702 -0.314312 23.9311 -0.314312 22.6731 0.942937L18.1399 5.47622L23.8905 11.2269C25.2268 10.7753 26.7592 11.0783 27.8245 12.1435C28.8948 13.2156 29.1956 14.7612 28.7331 16.1018L34.2751 21.6441C35.6159 21.1822 37.163 21.481 38.2339 22.5537C39.7305 24.0498 39.7305 26.4747 38.2339 27.9718C36.7368 29.4691 34.312 29.4691 32.8141 27.9718C31.6883 26.8448 31.4102 25.1914 31.9801 23.8045L26.8118 18.636L26.8112 32.2373C27.1858 32.4225 27.528 32.6672 27.8245 32.9619C29.3211 34.458 29.3211 36.8831 27.8245 38.3813C26.3274 39.8778 23.9014 39.8778 22.4065 38.3813C20.9098 36.8831 20.9098 34.4582 22.4065 32.9621C22.7652 32.6032 23.1914 32.319 23.6606 32.1259V18.3979C23.1907 18.2061 22.7642 17.9218 22.4065 17.5618C21.2725 16.4294 20.9998 14.7655 21.5809 13.3731L15.9121 7.70361L0.943361 22.6717C-0.314454 23.9301 -0.314454 25.9694 0.943361 27.2268L22.7743 49.0569C24.0311 50.3144 26.0698 50.3144 27.3282 49.0569L49.0569 27.3282C50.3144 26.0704 50.3145 24.0299 49.0571 22.7726Z" fill="#DE4C36"/>
</svg>
