<svg width="151" height="150" className="w-full h-full" viewBox="0 0 151 150" fill="none" xmlns="http://www.w3.org/2000/svg">
<path d="M88.6695 0C87.5805 0 86.5694 0.233348 85.636 0.544463C87.6194 1.86673 88.7083 3.6168 89.2528 5.6002C89.2918 5.87243 89.3695 6.06689 89.4084 6.3391C89.4474 6.57245 89.4862 6.80579 89.4862 7.03914C89.6418 10.4615 88.5917 10.8893 87.8528 12.9116C86.725 15.5172 87.0361 18.3173 88.3972 20.573C88.5139 20.8452 88.6695 21.1563 88.8639 21.4285C87.3861 11.5893 95.5919 10.1115 97.1086 7.03914C97.2253 4.35571 95.0086 2.56676 93.2585 1.32227C91.5862 0.311123 90.0695 0 88.6695 0ZM101.037 2.21675C100.881 3.11122 100.998 2.87788 100.959 3.34457C100.92 3.65568 100.92 4.04459 100.881 4.35571C100.803 4.66683 100.725 4.97795 100.609 5.28908C100.531 5.6002 100.414 5.91132 100.298 6.22244C100.142 6.53357 100.026 6.80579 99.87 7.11692C99.7533 7.27254 99.6755 7.42803 99.5589 7.5836C99.4811 7.70027 99.4032 7.81694 99.3255 7.93361C99.1311 8.20586 98.9366 8.47808 98.7422 8.71141C98.5088 8.94476 98.3144 9.21698 98.0421 9.41145C98.0421 9.45039 98.0421 9.45039 98.0421 9.45039C97.8088 9.64484 97.5754 9.87818 97.3032 10.0726C96.4865 10.6949 95.5532 11.1616 94.6976 11.7449C94.4253 11.9394 94.1531 12.0949 93.9198 12.3283C93.6475 12.5227 93.4142 12.7172 93.1809 12.9505C92.9086 13.1838 92.7142 13.4172 92.4808 13.6894C92.2864 13.9228 92.053 14.195 91.8975 14.4672C91.703 14.7395 91.5086 15.0117 91.353 15.2839C91.1974 15.595 91.0808 15.8673 90.9252 16.1784C90.8085 16.4895 90.6919 16.7617 90.6141 17.0729C90.4974 17.4229 90.4196 17.734 90.3419 18.0451C90.3029 18.2008 90.3029 18.3951 90.2641 18.5507C90.2251 18.7063 90.2251 18.8618 90.1864 19.0174C90.1864 19.3285 90.1475 19.6785 90.1475 19.9896C90.1475 20.223 90.1475 20.4563 90.1864 20.6897C90.1864 21.0008 90.2254 21.3119 90.3031 21.6619C90.342 21.973 90.4197 22.2842 90.4976 22.5953C90.6142 22.9064 90.692 23.2175 90.8087 23.5286C90.8864 23.7231 91.0031 23.9176 91.0809 24.0731L82.1361 20.6119C80.6194 20.1841 79.1416 19.7952 77.6249 19.4452C76.8082 19.2507 75.9915 19.0563 75.1748 18.8618C72.8414 18.3951 70.4691 18.0451 68.0968 17.8118C68.0191 17.8118 67.9801 17.7729 67.9023 17.7729C65.5689 17.5395 63.2744 17.4228 60.941 17.4228C59.2298 17.4228 57.5186 17.5006 55.8463 17.6173C53.474 17.7729 51.1017 18.084 48.7294 18.4729C48.1461 18.5506 47.5627 18.6673 46.9793 18.784C45.7738 19.0173 44.6071 19.2896 43.4792 19.5618C42.8959 19.7174 42.3125 19.8729 41.7292 20.0285C41.1458 20.2618 40.6014 20.5341 40.0569 20.7674C39.6291 20.9618 39.2013 21.1563 38.7735 21.3508C38.6958 21.3897 38.6179 21.3897 38.5791 21.4285C38.1902 21.6229 37.8401 21.7785 37.4901 21.9729C37.3735 22.0119 37.2957 22.0507 37.2179 22.0896C36.7901 22.2841 36.3623 22.5174 36.0123 22.7119C35.7401 22.8285 35.4678 22.9841 35.2345 23.1008C35.1178 23.1785 34.9623 23.2564 34.8845 23.2952C34.5345 23.4897 34.1845 23.6841 33.8733 23.8786C33.5233 24.073 33.2122 24.2675 32.94 24.4619C32.6677 24.6564 32.3955 24.8119 32.1622 25.0064C32.1232 25.0453 32.0844 25.0453 32.0455 25.0841C31.8122 25.2397 31.5399 25.4341 31.3066 25.6286C31.3066 25.6286 31.2676 25.6675 31.2289 25.7063C31.0344 25.8619 30.84 26.0174 30.6455 26.173C30.5678 26.2119 30.4899 26.2896 30.4122 26.3286C30.2177 26.4842 30.0233 26.6786 29.8288 26.8342C29.7899 26.9119 29.7122 26.9508 29.6732 26.9898C29.4399 27.2231 29.2065 27.4176 28.9732 27.6509C28.9342 27.6509 28.9342 27.6899 28.8955 27.7286C28.6621 27.9231 28.4288 28.1564 28.1954 28.3898C28.1565 28.4287 28.1565 28.4675 28.1177 28.4675C27.9233 28.6619 27.7288 28.8564 27.5343 29.0897C27.4566 29.1674 27.3399 29.2454 27.2621 29.3231C27.0677 29.5564 26.8343 29.7898 26.601 30.0231C26.562 30.1008 26.4843 30.1398 26.4454 30.2175C26.1342 30.5287 25.862 30.8398 25.5509 31.1509C25.5119 31.1899 25.4732 31.2286 25.4342 31.2676C24.812 31.9287 24.1508 32.5899 23.4508 33.1732C22.7508 33.7954 22.0119 34.3788 21.273 34.8844C20.4952 35.4289 19.7562 35.8955 18.9395 36.3622C18.1617 36.79 17.345 37.1789 16.4895 37.5289C15.6728 37.8789 14.8172 38.1901 13.9616 38.4623C12.3282 38.8123 10.6559 39.4734 9.21698 39.5901C8.90586 39.5901 8.55585 39.6678 8.24473 39.7068C7.89472 39.7845 7.5836 39.8624 7.27248 39.9401C6.96136 40.0568 6.65023 40.1735 6.33911 40.2901C6.02799 40.4068 5.71687 40.5624 5.40575 40.7179C5.13351 40.9124 4.82239 41.0679 4.55015 41.2624C4.27793 41.4568 4.00569 41.6902 3.77235 41.9235C3.50013 42.118 3.22789 42.3902 2.99454 42.6235C2.7612 42.8958 2.52786 43.1291 2.33341 43.4013C2.13897 43.7124 1.90562 43.9847 1.75005 44.2958C1.55561 44.5681 1.36116 44.8792 1.20559 45.1903C1.04997 45.5403 0.894474 45.8514 0.777802 46.2014C0.661131 46.5126 0.544459 46.8626 0.427788 47.2126C0.350068 47.5237 0.272165 47.8348 0.233341 48.1459C0.233341 48.1849 0.194391 48.2237 0.194391 48.2626C0.116671 48.6126 0.116671 49.0793 0.0777192 49.3127C0.0387691 49.5849 0 49.8182 0 50.0905C0 50.2461 0 50.4405 0.0389501 50.596C0.0779002 50.8683 0.116669 51.1016 0.194573 51.335C0.272293 51.5683 0.350196 51.8016 0.466795 52.035C0.466795 52.0739 0.466795 52.0739 0.466795 52.0739C0.583466 52.3073 0.739034 52.5406 0.894585 52.774C1.05021 53.0073 1.20572 53.2406 1.40017 53.474C1.59461 53.6684 1.82796 53.9018 2.0613 54.0962C2.29464 54.3296 2.52799 54.524 2.80021 54.7185C3.73358 55.5352 3.96692 55.8074 5.17252 56.4296C5.36696 56.5463 5.56143 56.6241 5.79477 56.7408C5.83373 56.7408 5.87249 56.7797 5.91144 56.7797C5.91144 56.8574 5.91144 56.8964 5.9504 56.9742C5.98935 57.2853 6.06707 57.5964 6.14485 57.9075C6.22257 58.2575 6.33931 58.5687 6.45598 58.8409C6.57266 59.0743 6.65043 59.3076 6.7671 59.5409C6.80605 59.6187 6.84482 59.6966 6.88377 59.7354C7.0394 60.0465 7.19489 60.3188 7.35044 60.591C7.54491 60.8632 7.73935 61.1354 7.9338 61.4077C8.12825 61.641 8.36159 61.9132 8.59493 62.1466C8.82828 62.3799 9.06162 62.5744 9.33386 62.8077C9.33386 62.8077 9.37282 62.8467 9.41158 62.8467C9.64492 63.0412 9.87827 63.2356 10.1116 63.3911C10.3838 63.5856 10.6561 63.7412 10.9672 63.8967C11.2394 64.0524 11.5505 64.2079 11.8617 64.3245C12.095 64.4412 12.3672 64.519 12.6395 64.5968C12.6784 64.6358 12.7172 64.6358 12.7951 64.6745C12.9507 64.7135 13.1451 64.7522 13.3007 64.7912C13.184 66.8912 13.145 68.8746 13.4563 69.5747C13.8063 70.3525 15.5175 67.9802 17.2286 65.2578C16.9953 67.9413 16.8397 71.0914 17.2286 72.0247C17.6564 72.997 19.9898 69.9635 22.0121 66.619C49.5853 60.241 74.7473 79.2972 77.3918 106.209C76.8863 102.009 71.7139 99.6757 69.3416 100.259C68.1749 103.137 66.1915 106.831 63.0025 109.126C63.2747 106.559 63.1581 103.915 62.6136 101.348C61.758 104.926 60.0857 108.27 57.7912 111.148C54.0966 111.421 50.402 109.632 48.4575 106.948C48.3019 106.831 48.263 106.598 48.1464 106.443C48.0297 106.17 47.913 105.898 47.8352 105.626C47.7186 105.354 47.6408 105.081 47.6019 104.809C47.5629 104.537 47.5629 104.265 47.5629 103.954C47.5629 103.759 47.5629 103.565 47.5629 103.37C47.6019 103.098 47.6796 102.826 47.7574 102.554C47.8351 102.281 47.913 102.009 48.0296 101.737C48.1853 101.465 48.3019 101.192 48.4963 100.92C49.1575 99.0534 49.1575 97.5367 47.9519 96.6423C47.7185 96.4866 47.4852 96.37 47.2129 96.2533C47.0573 96.2144 46.8629 96.1367 46.7074 96.0977C46.5907 96.0588 46.5129 96.02 46.3962 95.9811C46.124 95.9033 45.8518 95.8254 45.5795 95.7866C45.3073 95.7089 45.0351 95.6699 44.7628 95.6699C44.4906 95.6309 44.1795 95.5922 43.9073 95.5922C43.7128 95.5922 43.5184 95.6312 43.3239 95.6312C43.0128 95.6312 42.7405 95.6701 42.4683 95.7478C42.1961 95.7868 41.9239 95.8255 41.6516 95.9034C41.3794 95.9812 41.1072 96.0591 40.8349 96.1757C40.5627 96.2924 40.3294 96.409 40.0571 96.5257C39.8238 96.6424 39.5905 96.7979 39.3182 96.9146C30.2568 102.826 35.6625 116.671 41.8461 120.677C39.5127 121.104 37.1404 121.61 36.4792 122.115C36.4403 122.154 36.4015 122.193 36.4015 122.193C38.0738 123.204 39.8239 124.06 41.6517 124.799C44.1407 125.616 46.7852 126.354 47.9519 126.666V126.705C51.1798 127.366 54.4466 127.599 57.7523 127.405C74.9806 126.199 89.0978 113.093 91.6646 95.8257C91.7423 96.1757 91.8202 96.4868 91.8979 96.8368C92.0146 97.5368 92.1701 98.2757 92.2479 99.0147C92.2479 99.0147 92.2479 99.0147 92.2479 99.0537C92.3256 99.4037 92.3646 99.7537 92.4035 100.065C92.4035 100.143 92.4035 100.181 92.4035 100.22C92.4425 100.57 92.4813 100.92 92.4813 101.232C92.5202 101.659 92.559 102.087 92.559 102.515C92.559 102.709 92.559 102.904 92.559 103.137C92.559 103.332 92.5979 103.565 92.5979 103.759C92.5979 103.993 92.559 104.226 92.559 104.459C92.559 104.654 92.559 104.848 92.559 105.004C92.559 105.276 92.52 105.509 92.52 105.782C92.52 105.937 92.52 106.093 92.481 106.287C92.481 106.56 92.4421 106.832 92.4421 107.143C92.4031 107.26 92.4031 107.376 92.4031 107.493C92.3642 107.804 92.3254 108.076 92.2864 108.387C92.2864 108.504 92.2864 108.621 92.2475 108.737C92.2085 109.126 92.1308 109.476 92.0919 109.865V109.904V109.943C92.0142 110.293 91.9362 110.682 91.8585 111.032C91.8585 111.071 91.8585 111.11 91.8585 111.149C91.7808 111.499 91.7029 111.849 91.6252 112.199C91.6252 112.238 91.5862 112.315 91.5862 112.354C91.5085 112.704 91.4306 113.054 91.314 113.404C91.314 113.443 91.314 113.482 91.314 113.521C91.1974 113.91 91.0807 114.26 91.0029 114.61C90.964 114.649 90.9639 114.688 90.9639 114.688C90.8473 115.077 90.7306 115.466 90.614 115.854C90.4583 116.243 90.3417 116.593 90.1862 116.982C90.0306 117.371 89.9139 117.76 89.7584 118.11C89.6027 118.499 89.4472 118.849 89.2917 119.238H89.2527C89.097 119.588 88.9415 119.977 88.7471 120.327C88.7081 120.444 88.6694 120.521 88.6304 120.599C88.5915 120.638 88.5915 120.677 88.5527 120.716C86.0248 125.81 82.2914 130.283 77.6246 133.783C77.3134 133.977 77.0023 134.211 76.6912 134.444C76.6135 134.522 76.4967 134.561 76.419 134.638C76.1467 134.833 75.8745 135.027 75.5634 135.222L75.68 135.455H75.719C76.2634 135.377 76.8079 135.3 77.3524 135.222H77.3913C78.4025 135.066 79.4136 134.872 80.4248 134.677C80.697 134.638 81.0081 134.561 81.2803 134.483C81.4748 134.444 81.6303 134.405 81.8248 134.366C82.097 134.327 82.3693 134.25 82.6415 134.211C82.8748 134.133 83.1082 134.094 83.3415 134.016C87.2305 133.083 91.0029 131.799 94.6197 130.283C88.4361 138.722 80.1525 145.528 70.4688 150C74.9412 149.689 79.4136 148.95 83.7304 147.705C99.4032 143.078 112.587 132.538 120.482 118.343C118.887 127.327 115.309 135.883 110.02 143.35C113.793 140.861 117.254 137.983 120.404 134.716C129.115 125.616 134.832 114.065 136.777 101.659C138.099 107.804 138.488 114.143 137.905 120.405C165.983 81.2421 140.238 40.6406 129.465 29.9458C129.426 29.8681 129.388 29.8292 129.388 29.7514C129.349 29.7903 129.349 29.7903 129.349 29.8291C129.349 29.7902 129.349 29.7902 129.31 29.7514C129.31 30.2181 129.271 30.6847 129.232 31.1514C129.115 32.0459 128.999 32.9015 128.843 33.7571C128.649 34.6127 128.415 35.4682 128.182 36.3238C127.91 37.1405 127.599 37.9961 127.249 38.8128C126.899 39.5906 126.51 40.4073 126.082 41.1851C125.654 41.924 125.187 42.7018 124.682 43.4018C124.176 44.1408 123.632 44.8408 123.087 45.5019C122.504 46.2019 121.882 46.8242 121.259 47.4464C120.871 47.7964 120.521 48.1076 120.132 48.4187C119.821 48.6909 119.548 48.9243 119.237 49.1965C118.537 49.7409 117.837 50.2465 117.059 50.7132C116.32 51.1799 115.543 51.6466 114.765 52.0355C113.948 52.4244 113.131 52.7744 112.315 53.1244C111.498 53.4355 110.642 53.7078 109.787 53.9411C108.931 54.1744 108.037 54.3689 107.181 54.5245C106.287 54.6801 105.392 54.7578 104.537 54.8356C103.914 54.8745 103.292 54.9133 102.67 54.9133C101.775 54.9133 100.881 54.8356 100.025 54.7577C99.1309 54.68 98.2364 54.5632 97.3809 54.3688C96.4864 54.2131 95.6308 53.9799 94.7752 53.7076H94.7363C95.5919 53.6299 96.4475 53.552 97.303 53.3965C98.1975 53.2409 99.0531 53.0465 99.9087 52.8132C100.764 52.5798 101.62 52.3076 102.437 51.9965C103.292 51.6853 104.109 51.2964 104.887 50.9075C105.703 50.5186 106.442 50.0908 107.22 49.6242C107.959 49.1186 108.698 48.613 109.398 48.0685C110.098 47.5241 110.759 46.9407 111.381 46.3185C112.042 45.7351 112.626 45.074 113.209 44.4129C113.792 43.7129 114.337 43.0128 114.843 42.3128C114.92 42.1961 114.998 42.0406 115.076 41.9239C115.465 41.3016 115.854 40.6794 116.204 40.0572C116.631 39.2793 117.02 38.5015 117.37 37.6849C117.72 36.8682 118.032 36.0515 118.304 35.1959C118.576 34.3792 118.77 33.5236 118.965 32.668C119.121 31.7735 119.276 30.9179 119.354 30.0624C119.432 29.1679 119.509 28.2734 119.509 27.4178C119.509 26.7956 119.47 26.1733 119.432 25.5511C119.354 24.6566 119.237 23.801 119.121 22.9455C118.965 22.051 118.771 21.1954 118.537 20.3398C118.265 19.5231 117.993 18.6675 117.682 17.8508C117.371 17.0341 116.982 16.2174 116.593 15.4396C116.165 14.6618 115.737 13.884 115.27 13.1451C114.765 12.4062 114.259 11.7062 113.715 11.0062C113.131 10.345 112.548 9.68389 111.926 9.02275C111.615 8.71164 111.265 8.36162 110.915 8.05051C109.165 6.68934 107.337 5.40595 105.509 4.23925C105.237 4.08364 105.003 3.96702 104.731 3.85034C103.448 3.03366 102.242 2.60585 101.037 2.21696L101.037 2.21675Z" fill="#E0234E"/>
</svg>
