<svg width="200" height="170" viewBox="0 0 200 170" fill="none" xmlns="http://www.w3.org/2000/svg">
<path d="M146.137 61.7887V107.468L100.222 130.433L99.8064 130.752V147.824L100.222 148.155L164.887 116.579V52.9274L164.276 52.801L146.045 61.4172L146.137 61.7887Z" fill="#2F406A"/>
<path d="M54.1585 107.842L100.222 130.433V148.155L35.1132 116.454V53.0521L35.7813 52.9668L53.9593 61.9009L54.1585 62.4126V107.842Z" fill="#2379BD"/>
<path d="M54.1585 62.4126L35.1132 53.0521L100.074 21.3511L164.887 52.9274L146.137 61.7887L100.074 39.5729L54.1585 62.4126Z" fill="#03AFEF"/>
<path d="M99.4304 102.618L98.9316 102.188V85.0353L99.4304 84.8176L99.5516 84.3947L116.947 75.8167L117.479 75.9174V93.5911L99.4304 102.618Z" fill="#2F406A"/>
<path d="M81.0808 94.1415V75.7903L81.5852 75.7693L99.28 84.4746L99.4306 84.8174V102.618L81.0808 94.1415Z" fill="#2379BD"/>
<path d="M99.1295 66.7632L81.0808 75.7907L99.4306 84.8179L117.479 75.9176L99.1295 66.7632Z" fill="#03AFEF"/>
<path d="M76.971 113.807L76.4727 113.377V96.2236L76.971 96.0064L77.0926 95.5834L94.4874 87.0054L95.0196 87.1061V104.779L76.971 113.807Z" fill="#2F406A"/>
<path d="M58.6219 105.331V86.979L59.1258 86.958L76.8206 95.6637L76.9712 96.0066V113.807L58.6219 105.331Z" fill="#2379BD"/>
<path d="M76.6706 77.9519L58.6219 86.979L76.9712 96.0066L95.0199 87.1063L76.6706 77.9519Z" fill="#03AFEF"/>
<path d="M123.496 114.231L122.997 113.801V96.6477L123.496 96.4304L123.617 96.0075L141.013 87.4294L141.545 87.5301V105.203L123.496 114.231Z" fill="#2F406A"/>
<path d="M105.147 105.755V87.4031L105.651 87.3821L123.346 96.0878L123.497 96.4306V114.231L105.147 105.755Z" fill="#2379BD"/>
<path d="M123.196 78.3757L105.147 87.4029L123.497 96.4304L141.545 87.5301L123.196 78.3757Z" fill="#03AFEF"/>
<path d="M101.035 125.419L100.537 124.989V107.836L101.035 107.619L101.157 107.196L118.552 98.6179L119.084 98.7186V116.392L101.035 125.419Z" fill="#2F406A"/>
<path d="M82.6857 116.944V98.592L83.1896 98.571L100.885 107.276L101.035 107.62V125.42L82.6857 116.944Z" fill="#2379BD"/>
<path d="M100.734 89.5642L82.6857 98.5918L101.035 107.619L119.084 98.719L100.734 89.5642Z" fill="#03AFEF"/>
<path d="M99.4304 78.2911L98.9316 77.8604V60.7078L99.4304 60.4905L99.5516 60.0671L116.947 51.4895L117.479 51.5902V69.2635L99.4304 78.2911Z" fill="#2F406A"/>
<path d="M81.0808 69.8141V51.4624L81.5852 51.4414L99.28 60.1467L99.4306 60.49V78.2905L81.0808 69.8141Z" fill="#2379BD"/>
<path d="M99.1295 42.4353L81.0808 51.4629L99.4306 60.4904L117.479 51.5901L99.1295 42.4353Z" fill="#03AFEF"/>
<path d="M76.971 89.4798L76.4727 89.0495V71.8969L76.971 71.6792L77.0926 71.2563L94.4874 62.6782L95.0196 62.7789V80.4527L76.971 89.4798Z" fill="#2F406A"/>
<path d="M58.6219 81.0033V62.6521L59.1258 62.6311L76.8206 71.3364L76.9712 71.6792V89.4798L58.6219 81.0033Z" fill="#2379BD"/>
<path d="M76.6706 53.624L58.6219 62.6516L76.9712 71.6787L95.0199 62.7784L76.6706 53.624Z" fill="#03AFEF"/>
<path d="M123.496 89.9034L122.997 89.4731V72.3205L123.496 72.1028L123.617 71.6798L141.013 63.1018L141.545 63.2025V80.8762L123.496 89.9034Z" fill="#2F406A"/>
<path d="M105.147 81.4264V63.0752L105.651 63.0542L123.346 71.7595L123.497 72.1023V89.9029L105.147 81.4264Z" fill="#2379BD"/>
<path d="M123.196 54.0479L105.147 63.0754L123.497 72.1025L141.545 63.2023L123.196 54.0479Z" fill="#03AFEF"/>
<path d="M101.035 101.092L100.537 100.662V83.509L101.035 83.2918L101.157 82.8688L118.552 74.2908L119.084 74.3915V92.0648L101.035 101.092Z" fill="#2F406A"/>
<path d="M82.6861 92.6156V74.2639L83.1899 74.2429L100.885 82.9487L101.035 83.2915V101.092L82.6861 92.6156Z" fill="#2379BD"/>
<path d="M100.734 65.2366L82.6857 74.2641L101.035 83.2917L119.084 74.3914L100.734 65.2366Z" fill="#03AFEF"/>
</svg>
