<svg width="154" height="151" className="w-full h-full" viewBox="0 0 154 151" fill="none" xmlns="http://www.w3.org/2000/svg">
<path d="M131.333 48.0515V102.087L77.0185 129.252L76.5274 129.63V149.825L77.0185 150.217L153.513 112.864V37.5693L152.79 37.4197L131.225 47.612L131.333 48.0515Z" fill="#2F406A"/>
<path d="M22.5292 102.53L77.0185 129.252V150.217L0 112.717V37.7167L0.790351 37.6159L22.2935 48.1843L22.5292 48.7896V102.53Z" fill="#2379BD"/>
<path d="M22.5292 48.7896L0 37.7167L76.8439 0.216797L153.513 37.5693L131.333 48.0515L76.8439 21.7719L22.5292 48.7896Z" fill="#03AFEF"/>
<path d="M76.0825 96.3498L75.4925 95.8409V75.5506L76.0825 75.2931L76.2259 74.7927L96.8032 64.6455L97.4328 64.7647V85.6714L76.0825 96.3498Z" fill="#2F406A"/>
<path d="M54.3763 86.3226V64.6144L54.973 64.5896L75.9047 74.8873L76.0825 75.2931V96.3498L54.3763 86.3226Z" fill="#2379BD"/>
<path d="M75.7266 53.9359L54.3763 64.6144L76.0825 75.2931L97.4328 64.7647L75.7266 53.9359Z" fill="#03AFEF"/>
<path d="M49.5147 109.585L48.9252 109.076V88.7855L49.5147 88.5285L49.6586 88.0282L70.2353 77.881L70.865 78.0001V98.9064L49.5147 109.585Z" fill="#2F406A"/>
<path d="M27.8091 99.5586V77.8499L28.4052 77.8251L49.3368 88.1233L49.5147 88.5285V109.585L27.8091 99.5586Z" fill="#2379BD"/>
<path d="M49.1593 67.1714L27.8091 77.8499L49.5147 88.5285L70.865 78.0001L49.1593 67.1714Z" fill="#03AFEF"/>
<path d="M104.551 110.087L103.961 109.578V89.2871L104.551 89.0301L104.694 88.5298L125.271 78.3826L125.901 78.5017V99.408L104.551 110.087Z" fill="#2F406A"/>
<path d="M82.8449 100.06V78.3514L83.4415 78.3266L104.373 88.6248L104.551 89.0301V110.087L82.8449 100.06Z" fill="#2379BD"/>
<path d="M104.195 67.6729L82.8449 78.3514L104.551 89.0301L125.901 78.5017L104.195 67.6729Z" fill="#03AFEF"/>
<path d="M77.9808 123.322L77.3913 122.813V102.523L77.9808 102.266L78.1247 101.765L98.702 91.618L99.3311 91.7371V112.643L77.9808 123.322Z" fill="#2F406A"/>
<path d="M56.2748 113.296V91.5871L56.8709 91.5623L77.8032 101.86L77.9808 102.266V123.322L56.2748 113.296Z" fill="#2379BD"/>
<path d="M77.6251 80.9081L56.2748 91.5871L77.9808 102.266L99.3311 91.7371L77.6251 80.9081Z" fill="#03AFEF"/>
<path d="M76.0825 67.5728L75.4925 67.0633V46.773L76.0825 46.516L76.2259 46.0151L96.8032 35.8685L97.4328 35.9876V56.8938L76.0825 67.5728Z" fill="#2F406A"/>
<path d="M54.3763 57.545V35.8363L54.973 35.8115L75.9047 46.1092L76.0825 46.516V67.5728L54.3763 57.545Z" fill="#2379BD"/>
<path d="M75.7266 25.1578L54.3763 35.8363L76.0825 46.516L97.4328 35.9876L75.7266 25.1578Z" fill="#03AFEF"/>
<path d="M49.5147 80.8082L48.9252 80.2993V60.009L49.5147 59.7515L49.6586 59.2511L70.2353 49.1039L70.865 49.2231V70.1298L49.5147 80.8082Z" fill="#2F406A"/>
<path d="M27.8091 70.781V49.0728L28.4052 49.048L49.3368 59.3457L49.5147 59.7515V80.8082L27.8091 70.781Z" fill="#2379BD"/>
<path d="M49.1593 38.3933L27.8091 49.0728L49.5147 59.7515L70.865 49.2231L49.1593 38.3933Z" fill="#03AFEF"/>
<path d="M104.551 81.3091L103.961 80.8001V60.5098L104.551 60.2523L104.694 59.752L125.271 49.6048L125.901 49.7239V70.6307L104.551 81.3091Z" fill="#2F406A"/>
<path d="M82.8449 71.2815V49.5733L83.4415 49.5485L104.373 59.8462L104.551 60.2523V81.3091L82.8449 71.2815Z" fill="#2379BD"/>
<path d="M104.195 38.8948L82.8449 49.5733L104.551 60.2523L125.901 49.7239L104.195 38.8948Z" fill="#03AFEF"/>
<path d="M77.9806 94.5449L77.3911 94.036V73.7451L77.9806 73.4881L78.1245 72.9878L98.7018 62.8406L99.3309 62.9597V83.866L77.9806 94.5449Z" fill="#2F406A"/>
<path d="M56.2752 84.5175V62.8088L56.8713 62.784L77.8036 73.0822L77.9806 73.4881V94.5449L56.2752 84.5175Z" fill="#2379BD"/>
<path d="M77.6251 52.1303L56.2752 62.8088L77.9806 73.4881L99.3309 62.9597L77.6251 52.1303Z" fill="#03AFEF"/>
</svg>
